<svg width="19" height="19" viewBox="0 0 19 19" fill="none" xmlns="http://www.w3.org/2000/svg">
<path d="M13.625 5.375H13.6325M5.75 2H13.25C15.3211 2 17 3.67893 17 5.75V13.25C17 15.3211 15.3211 17 13.25 17H5.75C3.67893 17 2 15.3211 2 13.25V5.75C2 3.67893 3.67893 2 5.75 2ZM12.5 9.0275C12.5926 9.65168 12.4859 10.2892 12.1953 10.8493C11.9047 11.4094 11.4449 11.8636 10.8812 12.1473C10.3176 12.431 9.67884 12.5297 9.05584 12.4294C8.43284 12.3292 7.85732 12.0351 7.41113 11.5889C6.96494 11.1427 6.6708 10.5672 6.57055 9.94416C6.4703 9.32116 6.56905 8.68242 6.85274 8.11878C7.13644 7.55514 7.59064 7.09531 8.15074 6.80468C8.71084 6.51406 9.34832 6.40744 9.9725 6.5C10.6092 6.59441 11.1986 6.8911 11.6538 7.34623C12.1089 7.80136 12.4056 8.39081 12.5 9.0275Z" stroke="black" stroke-width="1.3" stroke-linecap="round" stroke-linejoin="round"/>
</svg>
