<svg width="28" height="32" viewBox="0 0 28 32" fill="none" xmlns="http://www.w3.org/2000/svg">
<path d="M2 5.11183C1.99984 4.56445 2.13896 4.02672 2.40329 3.55294C2.66763 3.07915 3.04783 2.68608 3.50551 2.41342C3.96319 2.14076 4.48213 1.99816 5.00995 2.00002C5.53777 2.00188 6.05577 2.14813 6.51165 2.42401L24.5058 13.3091C24.9599 13.5823 25.3369 13.9744 25.5991 14.4461C25.8613 14.9178 25.9995 15.4526 26 15.9971C26.0005 16.5416 25.8631 17.0766 25.6017 17.5488C25.3403 18.021 24.9639 18.4137 24.5103 18.6878L6.51165 29.576C6.05577 29.8519 5.53777 29.9981 5.00995 30C4.48213 30.0018 3.96319 29.8592 3.50551 29.5866C3.04783 29.3139 2.66763 28.9208 2.40329 28.4471C2.13896 27.9733 1.99984 27.4355 2 26.8882V5.11183Z" fill="white" stroke="white" stroke-width="4" stroke-linecap="round" stroke-linejoin="round"/>
</svg>
