<svg width="20" height="18" viewBox="0 0 20 18" fill="none" xmlns="http://www.w3.org/2000/svg">
<path d="M1.85346 7.71806C1.85346 7.71806 9.81456 4.20567 12.5756 2.96895C13.634 2.47427 17.2234 0.891186 17.2234 0.891186C17.2234 0.891186 18.88 0.198727 18.742 1.88056C18.6959 2.57315 18.3277 4.99715 17.9596 7.61905C17.4074 11.3293 16.8091 15.3857 16.8091 15.3857C16.8091 15.3857 16.7172 16.5236 15.9349 16.7215C15.1525 16.9194 13.8641 16.0289 13.634 15.831C13.45 15.6825 10.1827 13.4564 8.98632 12.3682C8.66415 12.0714 8.296 11.4777 9.03229 10.7851C10.6889 9.15269 12.6677 7.12436 13.8641 5.8382C14.4162 5.24449 14.9685 3.85931 12.6677 5.54128C9.40044 7.96528 6.17918 10.2409 6.17918 10.2409C6.17918 10.2409 5.443 10.7356 4.06247 10.2904C2.68195 9.84514 1.07131 9.25157 1.07131 9.25157C1.07131 9.25157 -0.0330097 8.50941 1.85371 7.71806H1.85346Z" stroke="black" stroke-width="1.5"/>
</svg>
