<svg width="16" height="16" viewBox="0 0 16 16" fill="none" xmlns="http://www.w3.org/2000/svg">
<path fill-rule="evenodd" clip-rule="evenodd" d="M13.4776 2.3039C12.7499 1.57142 11.8841 0.990627 10.9304 0.595155C9.97662 0.199684 8.95387 -0.00259895 7.92138 2.5208e-05C3.59188 2.5208e-05 0.067375 3.52365 0.065625 7.8549C0.065625 9.23915 0.427 10.5902 1.11387 11.7819L0 15.8515L4.16412 14.7587C5.31597 15.3857 6.60642 15.7145 7.91787 15.715H7.92138C12.25 15.715 15.7745 12.1914 15.7763 7.86015C15.7792 6.82807 15.5776 5.80564 15.1831 4.85195C14.7885 3.89826 14.2089 3.03223 13.4776 2.3039ZM7.92138 14.3894H7.91875C6.74933 14.3895 5.60143 14.0749 4.5955 13.4785L4.3575 13.3368L1.8865 13.9851L2.54537 11.5763L2.3905 11.3295C1.73669 10.2886 1.39058 9.08408 1.39213 7.8549C1.39388 4.25515 4.3225 1.32653 7.924 1.32653C8.78172 1.32462 9.6313 1.49285 10.4236 1.82147C11.2158 2.15009 11.9351 2.63259 12.5396 3.24103C13.1474 3.84656 13.6292 4.56656 13.957 5.3594C14.2849 6.15224 14.4524 7.0022 14.4497 7.86015C14.448 11.4599 11.5194 14.3894 7.92138 14.3894ZM11.5027 9.49902C11.3059 9.40015 10.3416 8.9259 10.1614 8.86028C9.982 8.79465 9.85163 8.76227 9.72038 8.95827C9.58913 9.15427 9.21287 9.59615 9.09825 9.7274C8.98362 9.85865 8.869 9.8744 8.673 9.7764C8.477 9.6784 7.84437 9.47103 7.0945 8.80253C6.51087 8.2819 6.11712 7.63965 6.0025 7.44277C5.88787 7.2459 5.99025 7.14003 6.08912 7.04203C6.1775 6.95453 6.28513 6.81277 6.38313 6.69815C6.48113 6.58352 6.5135 6.50215 6.57913 6.3709C6.64475 6.23965 6.61238 6.12502 6.5625 6.02702C6.5135 5.92815 6.12062 4.96215 5.957 4.56928C5.79862 4.18865 5.63675 4.2394 5.516 4.23415C5.39094 4.22904 5.26579 4.2267 5.14062 4.22715C5.0411 4.22969 4.94317 4.25276 4.85298 4.29492C4.76279 4.33708 4.68228 4.39742 4.6165 4.47215C4.43625 4.66903 3.92963 5.14328 3.92963 6.10928C3.92963 7.07528 4.63312 8.0089 4.73112 8.14015C4.82912 8.2714 6.11538 10.2533 8.08413 11.1038C8.55313 11.3059 8.91887 11.4267 9.20325 11.5177C9.67312 11.6673 10.101 11.6454 10.4396 11.5955C10.8167 11.5395 11.6007 11.1213 11.7644 10.6628C11.928 10.2043 11.928 9.8114 11.879 9.72915C11.83 9.6469 11.6979 9.59702 11.5027 9.49902Z" fill="black"/>
</svg>
